<mxfile host="app.diagrams.net" modified="2022-09-22T02:30:38.626Z" agent="5.0 (Windows NT 10.0; Win64; x64) AppleWebKit/537.36 (KHTML, like Gecko) Chrome/107.0.0.0 Safari/537.36" etag="gob-egNqADfJwDCUClnH" version="20.2.0" type="github">
  <diagram id="N3dfLxgh6ENo2fCfb1b5" name="第 1 页">
    <mxGraphModel dx="1572" dy="420" grid="1" gridSize="10" guides="1" tooltips="1" connect="1" arrows="1" fold="1" page="1" pageScale="1" pageWidth="827" pageHeight="1169" math="0" shadow="0">
      <root>
        <mxCell id="0" />
        <mxCell id="1" parent="0" />
        <mxCell id="5p5s4Jf39GHF6mxRUUih-6" style="edgeStyle=orthogonalEdgeStyle;rounded=0;orthogonalLoop=1;jettySize=auto;html=1;entryX=0.5;entryY=0;entryDx=0;entryDy=0;fontSize=13;" edge="1" parent="1" source="5p5s4Jf39GHF6mxRUUih-1" target="5p5s4Jf39GHF6mxRUUih-4">
          <mxGeometry relative="1" as="geometry" />
        </mxCell>
        <mxCell id="5p5s4Jf39GHF6mxRUUih-1" value="" style="shape=image;verticalLabelPosition=bottom;verticalAlign=top;imageAspect=0;image=data:image/png,iVBORw0KGgoAAAANSUhEUgAAAMgAAADICAYAAACtWK6eAAAAAXNSR0IArs4c6QAAEGJJREFUeF7tnX2wHXV5x59n742oA5qzJ1EUcJB79l6UoTjDS6Igg9SKaGmn1EGhNi1qSM6elLbWESG0XgtYrEWmMWc3L7xUrVBhlA51tNNRY6bxJZq0SiXmnj036JRChXv2hKEWJPfu0znaOAi5uXt++/Lb3/l977/5PW+fZz9zJudllwl/IAACixJgsAEBEFicAATB1QECRyEAQXB5gAAEwTUAAmoE8Aqixg1RlhCAIJYsGmOqEYAgatwQZQkBCGLJojGmGgEIosYNUZYQgCCWLBpjqhGAIGrcEGUJAXbbM9OWzIoxQWBoAuwGkQwdhQAQsICAEH0dgliwaIyoRgCCqHFDlCUEIIgli8aYagQgiBo3RFlCAIJYsmiMqUYAgqhxQ5QlBCCIJYvGmGoEIIgaN0RZQgCCWLJojKlGAIKocUOUJQQgiCWLxphqBCCIGjdEWUIAgliyaIypRgCCqHFDlCUEIIgli8aYagQgiBo3RFlCAIJYsmiMqUYAgqhxQ5QlBCCIJYvGmGoEIIgaN0RZQgCCWLJojKlGAIKocUOUJQQgiCWLxphqBCCIGjdEWUIAgliyaIypRgCCqHFDlCUEIIgli8aYagQgiBo3RFlCAIJYsmiMqUYAgqhxQ5QlBCCIJYvGmGoEIIgaN0RZQgCCWLLoDGMeIKI5IpoiopdmyGNkKAQxcm0FNc20X4T2sNDXxeHdfefgDK0769Dhaitu3feK+fFlUzzO57DQKiJZRUQnFNRNJdJCkEqsQXcT8l1i/pu46d0zbCf1dnejsGwkohcNG2vCeQhiwpYK6pGJfpYQfbj/WOMWmuZ51TL19szZCTkbmem3VXNUNQ6CVHUzxfd1wHGcd86tn9iTVyk3jLaR0Nq88lUhDwSpwhbK7kFkV9yafGMRZd1g9kqi5I4icuvICUF0UNdZU+SRuDVZ6H+sl38yusAZox06x8yrNgTJi6QZeZ4Scd7Sb03sKrpdN4jeR0Tbi65TdH4IUjThauVfG/vebWW15AadrUR8VVn1iqgDQYqgWsGcg0X3fe9NZba2IuiemZDk9iZAmb0frgVBdFDXUJNFfrfXmvxC2aVNfxWBIGVfMXrq7Y59b7WO0vXNnVXi8Ld11M6jJgTJg2LVc0jykbg1Na2rTTeIvkdEZ+iqn6UuBMlCz5BYTmR1b8Pkbl3t1oLoJia6Tlf9LHUhSBZ6ZsQein3vBTpbrYXdc1mk8LeWi5gRghRBtUo5mR+Nm41X6mxpRXBgKqGF/Tp7UK0NQVTJmRP3g9j3TtfZ7nFbZ1YsW3Ae19mDam0IokrOkDgdn38cCY0bRGIIsl9pE4KYuLXhesYryHC8IEgGXuaF4v8gmXaGV5BM+IwIxrtYGdYEQTLAMyVUmM/rNxvf0NUvPgfRRR51UxFg5r/uNRvXpDpcwCF8kl4AVKTMk4DMxP7kqXlmTJsL38VKSwrnNBPgdbHf2FZ2E/g2b9nEUU+VwN7Y985SDVaJw+9BVKghRiOBcl9FTH/1GCwK72JpvFw1lMZv0oeEDkGGBGb8cdzVZKgVQpChcI3IYdwXK/UiIUhqVCN3EHdWTLFSCJIC0qgeGdybVyS52Rk/ZuvcupMfVZ2zHsy+mSS5WpguUc1R1TgIUtXNlNvXIyTJdkfG75rbMNFJW/rnHwKOOetJ5A/Txph2DoKYtrGC+x1cEA7zfQnR1xZ7PsiYIxcLO28lkl8ruB3t6SGI9hVUvgE8YcrUX3tV/tJCg8YTwCuI8SvEAEUSgCBF0kVu4wlAEONXiAGKJABBiqSL3MYTgCBqKxy8s3OKWiiiTCIAQYbclhDdP0b8l6Y/92LIsa09DkGGWT3Tk/EhWklXez9zN++/jJyxzw0TjrPmEYAgw+zM4Yvj9Y1/PhxSC6MPsdBfDZMCZ80iAEFS74s/HvuNDz73uBt2t5HISD0bPDUSCw5CkHRLPurvud0g+ioRXZguFU6ZRACCpNjWAsnEE/7k4J2rI/4dt/mH9WXOsj1EcnKKdDhiEAEIsvSyUj06ud6ePVs4+c7S6XDCJAIQ5CjbYqK7er73e2kXWgtn3sXi3J32PM5VnwAEWXRH/GjsD/9kpnoQXSdEN1V/9egwDQEIsggloeT8vj/1r2kgPu+drXZ0OzG9RyUWMdUiAEGOtA+m6bjpfSTLqmpBtIOJLsiSA7H6CUCQ5+yAiXb2fC/zhX3spmjlC8ZpLxGdpH/N6ECVAAT5VXLzy5hP+Emz8Zgq0GfHuUG0moi+lUcu5NBDAII8i7swX95vNv4hz1XUgs4VTPzZPHMiV3kEIMhh1kzb46Z3VRHo60H3eiG5oYjcyFksAQjyc77cif3GVJGo3XbnTmIe2ftHFclOZ24IQkROQmfObfD+rehFuGG0k4TOL7oO8udHAIIwfyBuNm7JD+nimV62/cDL5w8tDN7ZOqGMeqiRnYDdgjB/KW423p4dY/oMbrv7BmLR9sTZ9J3i5ICAvYIIHVx23HEn/mTN8T8t+1KoB9G7hegzZddFveEJWCuICP1Wv+X90/DI8olww+jDJDSdTzZkKYqAnYIw3Ro3vfcXBTVt3loQfYqJ1qQ9j3PlE7BQEN4b+41Sn/Z6tLW6QbSLiM4tf/WomIaAdYI4iTM1zDMw0kDMcmbFJ/e/MhkbH/wa8RVZ8iC2GAJWCSIkzb4/uaUYlOpZa+3Z85gTpa/Wq1dFZBoCNglyb+x7l6WBouNMfUt3jSTyKR21UXNxArYI8p+x772q6heCG0SD36D8RdX7tKk/KwRxhC+cazV2mLDYehB9RojebUKvNvRogSB8Y+w3/tykZbrt6JvE9Ppq9yw/IuKRv83RSAvCJDt7/mTmXweWfaG6m6ITaRntIaGXl107XT25k0VCcsZeLyJ/my7GzFOjLMjTzEmj15z6LxNXs3xL53wn4Z2V6l3oW+xQ2Gt6v/yajBt0/45I/qBSfebYzMgKwkS/3/O9v8+RVemp3KBzJRHfUXrh5xfsC1HI8xTGV3sPP/ef3bD7AImcXoE+c29hNAVhuiNueu/NnZaGhG7QvYFIrtdQ+v9L8heYkrDnT35lsR7qWx86VRbmf6ivx+Iqj6Ig+2LfO604ZOVndtudu4j58pIr72PmsFefCOkyXliqdi2YvYIpGbnf3o+cIMzJql5zauTukesG0beJaNVSF2r2f+dESEJOKIw3eA8Ok88NosEPz7R/CXSYnpc6O1KCiNC1/ZZ381JDm/jvta2zr3IWkj1CtLLA/r9G7ARxc+LzqjVG7YZ5IyMIk3yx509eorpYE+JWhNEFiVABH3jKI0wUPpMshE9ueE0vC4vj74hWPvM0dYnoJVnyVCV2JARhoseTMcfrr5t4oipgi+rDbUfvJabb8srPQp9NnIWw3zw1t58Bu2F0EQn98lF1efWqI89oCMJ8aa/ZuE8HQB01a0H3Jia5LmPtvSQUxi3v9ox5jhheD6JrheijReQuM6f5gohsiluTf1wmtCrUcoNocAfIdyr08lMiCReIwqM9NUsh7/NC3DC6l4TekUcuXTlMF2R37HuD+99a+ecG3e8Qydlph2eiLyaOE/bXT3wpbUymc9M7xt2XnThDRKdkyqMx2GxBHDotXu/t08hPa+nl4UMnO3JoLxG7R2tEiLqD/4S/+OkXhg+//6Snymx6RdA9MyHZU2bNPGsZKwgz/1Gv2dicJwwTc9U3z/y6OM6in3IT0W0JU3Cw6f27rvncsLuWRLbpqp+lrpmCiNwdtyavyDL4KMW67e5a4udegLJr8P2pvj95VxVmrQfdUEjWV6GXYXowUZAD8WMPT9H0m+aHGXTUz9aDzs1CfA0RzZFI6IzPh3PrXvtoleZ2g2g3EZ1TpZ6W6sU8QYQuilvevyw1mI3/7gbRPY5wWNVfT7406JwyRtwhojFT9mOUICJyU781qfGbraastbp91tudS4VZ+assZU9mkCDyldif/I2yAaFe/gRq7c6NzLwx/8z5ZzRFkCeTZOz0gxtO+XH+CJBRBwE3iAafxVyso/YwNQ0RRN4T+5N3DjMYzlabwPI7H1ru/O/8fuKq/u7+F/wMEES2xf7kumqvG92pECju28kq3Rw5puqCfD/2vdflNy4yVY2AG0R/QkS3Vq2vw/1UWxDhc+NW45tVhYe+8iFQC6JPD26ykU+2fLNUVhAh+lDf9z6W77jIVlUCbhD9gIgqdy+Bagoicl/cmry0qstEX/kTWL5p5gxn3Ple/pmzZayiII8cGkvOeHLd1Fy20RBtGoF6u7tGuFp3uK+iIJfFvnevactFv/kQcMPoEyT0p/lky56lWoII3RK3vA9kHwsZTCbgtjs7ifn8KsxQIUF4V+w33lgFKOhBLwG33T2JONlHxMfq7aQ6HxQeSpzk7IPrp76vGwjqV4NArR1dwkz36+6mEq8gItTqt7xANwzUrxaBetC9Xkhu0NmVdkGE6NN93xvZ2+frXO4o1HaD7ueJRNtb/poF4ZmXvGjsdT+68tVPj8IyMUP+BFa2Hzx2gY/5DyLR8jQrvYIIXxy3GiNxB778Lw1kPEygFnbPZZFdOojoE4RpOm56g6e64g8EliRQD6KWEJV+Fxtdgnw59r23LUkFB0DgWQTcMNpGQmvLhFK+IEzxgkPnPLHOmy1zUNQaDQJu2P0uiZxV1jSlC8JMa579EMiyBkWd0SDgboleSwkNvvnLZUxUqiBC1O773oYyBkON0SVQa89ezpyUckO88gRh3hM3G6lvtDy668VkeRCotzsfE+YP5pHraDlKE0R44bw8H9JSNBjkrz4BN4gGHxFcVGSnZQnyZ7HvfaLIQZDbPgIr2w8dn/D8A0U+t7F4QZjuiZueyoNe7Ns4Jh6agNvuvpVYvjx0YMqAggXhH4/J2OrHW6/+75T94BgIDE2gFkTXMFEhTzcuVBAm/p2e3/jHoSdGAAgMScANOncT8buGDFvyeGGCsNDNvZZ37ZId4AAI5EFgU3SMO06DhwS9Jo90h3MUIogQ7ej73oV5NopcILAUgXp44ByRhcEzSHL7y18QoaeEF1b3/VMfyK1LJAKBlATcoHMVEW9NeXzJYwUIwlfFrcb2JSvjAAgURKAeRm0R8vNIn7cgt8e+9748GkMOEMhCwA2ibxDRG7LkGMTmJ4jQg2P0zOrHW6f9T9amEA8CWQms3DLrLSTJ4E6NL86SKzdBOHHe3Nsw8dUszSAWBPIk4G6J3kEJZboJYS6CMNHGnu99NM/hkAsE8iBQCzs3sqg/7i2zIEx0v0ii7SH1eUBEjtEmwI5zpgj9psqUmQVRKYoYEDCFAAQxZVPoUwsBCKIFO4qaQgCCmLIp9KmFAATRgh1FTSEAQUzZFPrUQgCCaMGOoqYQgCCmbAp9aiEAQbRgR1FTCEAQUzaFPrUQgCBasKOoKQQgiCmbQp9aCEAQLdhR1BQCEMSUTaFPLQQgiBbsKGoKAQhiyqbQpxYCvxCkPTOtpTqKgoABBEp5Uo8BHNAiCByRAATBhQECRyEAQXB5gAAEwTUAAmoE8Aqixg1RlhCAIJYsGmOqEYAgatwQZQkBCGLJojGmGgEIosYNUZYQgCCWLBpjqhGAIGrcEGUJAQhiyaIxphqB/wOU58xRVIc5ogAAAABJRU5ErkJggg==" vertex="1" parent="1">
          <mxGeometry x="-710" y="150" width="60" height="60" as="geometry" />
        </mxCell>
        <mxCell id="5p5s4Jf39GHF6mxRUUih-2" value="&lt;b&gt;&lt;font style=&quot;font-size: 25px;&quot;&gt;PoseWarper网络结构图&lt;/font&gt;&lt;/b&gt;" style="text;html=1;strokeColor=none;fillColor=none;align=center;verticalAlign=middle;whiteSpace=wrap;rounded=0;" vertex="1" parent="1">
          <mxGeometry x="-790" y="40" width="340" height="30" as="geometry" />
        </mxCell>
        <mxCell id="5p5s4Jf39GHF6mxRUUih-3" value="&lt;font style=&quot;font-size: 11px;&quot;&gt;384 x 288 x3&lt;/font&gt;" style="text;html=1;strokeColor=none;fillColor=none;align=center;verticalAlign=middle;whiteSpace=wrap;rounded=0;fontSize=25;" vertex="1" parent="1">
          <mxGeometry x="-690" y="210" width="90" height="20" as="geometry" />
        </mxCell>
        <mxCell id="5p5s4Jf39GHF6mxRUUih-4" value="Conv&lt;br&gt;k3,s2,p1,c64" style="rounded=0;whiteSpace=wrap;html=1;fontSize=13;fillColor=#f8cecc;strokeColor=#b85450;" vertex="1" parent="1">
          <mxGeometry x="-735" y="280" width="110" height="40" as="geometry" />
        </mxCell>
      </root>
    </mxGraphModel>
  </diagram>
</mxfile>
